<svg xmlns="http://www.w3.org/2000/svg" width="25" height="24" fill="none" viewBox="0 0 25 24" id="amazon-prime-video">
  <rect width="24" height="24" x=".463" fill="url(#paint0_linear_302_5253)" rx="8"></rect>
  <path fill="#fff" fill-rule="evenodd" d="M11.6444 4.71111C11.6444 5.10384 11.3261 5.42222 10.9333 5.42222C10.5406 5.42222 10.2222 5.10384 10.2222 4.71111C10.2222 4.31838 10.5406 4 10.9333 4C11.3261 4 11.6444 4.31838 11.6444 4.71111ZM19.3266 5.60302C19.6183 5.71642 20 5.99064 20 6.48897C20 6.98872 19.7758 7.3648 19.4187 7.59101C19.1007 7.79258 18.7214 7.84787 18.4176 7.85793C18.2933 7.86204 18.1707 7.85884 18.0542 7.85119C18.1571 8.00106 18.2827 8.07868 18.4396 8.09036C18.7038 8.11002 18.8676 8.04723 18.9554 7.99861C19.0017 7.97299 19.032 7.94843 19.0471 7.93468C19.0547 7.92784 19.0581 7.92412 19.0581 7.92412L19.0547 7.92799L19.0508 7.93272L19.0483 7.93586L19.047 7.93762L19.0462 7.93856C19.0462 7.93856 19.0455 7.93953 19.4667 8.26667C19.8879 8.59381 19.8875 8.5943 19.8875 8.5943L19.8863 8.59586L19.8845 8.59807L19.8806 8.60297L19.8711 8.61455C19.8639 8.62304 19.8552 8.63305 19.8449 8.64432C19.8243 8.66684 19.7971 8.69457 19.7631 8.7254C19.695 8.78701 19.5987 8.86176 19.4717 8.93198C19.2132 9.07505 18.8436 9.19004 18.3604 9.15408C17.801 9.11246 17.3968 8.79673 17.149 8.41631C16.9083 8.04681 16.8 7.60019 16.8 7.20008C16.8 6.69653 16.9947 6.29 17.3005 6.00123C17.5946 5.72341 17.9671 5.57599 18.3123 5.51845C18.6544 5.46145 19.0207 5.48405 19.3266 5.60302ZM18.0302 6.7793C18.1446 6.79007 18.265 6.79573 18.3824 6.79185C18.6119 6.78425 18.766 6.74183 18.8479 6.68997C18.8777 6.67108 18.9073 6.64939 18.9226 6.59083C18.8261 6.55817 18.6677 6.5406 18.4877 6.5706C18.2996 6.60195 18.1387 6.67675 18.0329 6.77671L18.0302 6.7793ZM9.51111 10.4C9.51111 10.7927 9.19273 11.1111 8.8 11.1111C8.40727 11.1111 8.08889 10.7927 8.08889 10.4C8.08889 10.0073 8.40727 9.68889 8.8 9.68889C9.19273 9.68889 9.51111 10.0073 9.51111 10.4ZM11.2889 12.7111C11.0685 12.7111 10.7556 12.9494 10.7556 13.4222C10.7556 13.895 11.0685 14.1333 11.2889 14.1333C11.5093 14.1333 11.8222 13.895 11.8222 13.4222C11.8222 12.9494 11.5093 12.7111 11.2889 12.7111ZM11.2889 11.6444C11.4801 11.6444 11.6587 11.6794 11.8222 11.7424V10.4H12.8889V13.4222V15.2H11.8222V15.102C11.6587 15.1651 11.4801 15.2 11.2889 15.2C10.3311 15.2 9.68889 14.324 9.68889 13.4222C9.68889 12.5205 10.3311 11.6444 11.2889 11.6444ZM17.8667 13.4222C17.8667 12.9494 18.1796 12.7111 18.4 12.7111C18.6204 12.7111 18.9333 12.9494 18.9333 13.4222C18.9333 13.895 18.6204 14.1333 18.4 14.1333C18.1796 14.1333 17.8667 13.895 17.8667 13.4222ZM18.4 11.6444C17.4422 11.6444 16.8 12.5205 16.8 13.4222C16.8 14.324 17.4422 15.2 18.4 15.2C19.3578 15.2 20 14.324 20 13.4222C20 12.5205 19.3578 11.6444 18.4 11.6444ZM4.04596 12.0388L5.46819 15.2388H6.44292L7.86514 12.0388L6.89041 11.6056L5.95555 13.709L5.02069 11.6056L4.04596 12.0388ZM8.26667 15.2V11.8222H9.33333V15.2H8.26667ZM16.4444 12.6449C16.4444 12.1466 16.0627 11.8724 15.7711 11.7589C15.4652 11.64 15.0988 11.6174 14.7568 11.6744C14.4115 11.7319 14.039 11.8793 13.7449 12.1572C13.4391 12.4459 13.2444 12.8524 13.2444 13.356C13.2444 13.7561 13.3527 14.2027 13.5935 14.5722C13.8413 14.9526 14.2455 15.2683 14.8048 15.31C15.288 15.3459 15.6576 15.2309 15.9162 15.0879C16.0432 15.0177 16.1394 14.9429 16.2075 14.8813C16.2416 14.8505 16.2687 14.8228 16.2894 14.8002C16.2997 14.789 16.3083 14.779 16.3155 14.7705L16.325 14.7589L16.329 14.754L16.3307 14.7518L16.3319 14.7502C16.3319 14.7502 16.3323 14.7497 15.9111 14.4225C15.4899 14.0954 15.4906 14.0944 15.4906 14.0944L15.4914 14.0935L15.4928 14.0917L15.4953 14.0886L15.4992 14.0839L15.5025 14.08C15.5025 14.08 15.4992 14.0838 15.4916 14.0906C15.4764 14.1043 15.4462 14.1289 15.3999 14.1545C15.312 14.2031 15.1482 14.2659 14.8841 14.2463C14.7213 14.2342 14.5921 14.151 14.4872 13.99C14.4678 13.9602 14.4499 13.9287 14.4336 13.8955C14.6637 13.8921 14.9168 13.879 15.1502 13.8419C15.41 13.8007 15.7135 13.7218 15.9639 13.5491C16.2418 13.3574 16.4444 13.0532 16.4444 12.6449ZM14.9831 12.7884C14.8698 12.8064 14.7525 12.817 14.6347 12.8229C14.7207 12.7782 14.8218 12.7449 14.9321 12.7265C15.0546 12.7061 15.167 12.7077 15.2567 12.7211C15.1913 12.7457 15.1014 12.7696 14.9831 12.7884ZM12 18.5778C9.14427 18.5778 6.43286 17.3708 5.07622 16.7669C4.54241 16.5293 4.21835 16.3851 4.17778 16.4444C4.03409 16.6547 7.27854 19.6444 12 19.6444C15.9111 19.6444 18.8238 17.9349 18.4 17.5111C18.215 17.3262 17.5822 17.5057 16.6618 17.7668C15.4728 18.1042 13.8037 18.5778 12 18.5778ZM19.7825 16.3559C20.3031 16.8765 19.1461 19.2447 18.7746 19.1026C18.5884 19.0314 18.7273 18.6161 18.8764 18.1703C19.0287 17.7148 19.1918 17.2274 19.0294 17.0426C18.8585 16.8481 18.3081 16.8983 17.8204 16.9427C17.3917 16.9818 17.0116 17.0164 16.9805 16.8765C16.8841 16.4426 19.262 15.8352 19.7825 16.3559ZM10.4 5.77778V8.97778H11.4667V5.77778H10.4ZM7.91111 6.84445V5.6H8.97778V5.65185C9.26698 5.59954 9.57712 5.59979 9.82318 5.59998L9.86667 5.60001V6.66667C9.48087 6.66667 9.22419 6.67264 9.05754 6.72819C9.01286 6.74308 8.99408 6.75586 8.98819 6.76065C8.98459 6.76962 8.97778 6.79402 8.97778 6.84445V8.97778H7.91111V6.84445ZM8.99035 6.75644C8.99043 6.75652 8.98998 6.75753 8.98878 6.75925C8.98968 6.75722 8.99028 6.75636 8.99035 6.75644ZM8.98672 6.76191L8.98597 6.76267C8.98596 6.76267 8.98618 6.7624 8.98672 6.76191ZM5.95556 6.66667C5.73518 6.66667 5.42222 6.90495 5.42222 7.37778C5.42222 7.85061 5.73518 8.08889 5.95556 8.08889C6.17594 8.08889 6.48889 7.85061 6.48889 7.37778C6.48889 6.90495 6.17594 6.66667 5.95556 6.66667ZM5.06667 5.89522C5.31304 5.71122 5.61426 5.6 5.95556 5.6C6.91338 5.6 7.55556 6.47603 7.55556 7.37778C7.55556 8.27952 6.91338 9.15556 5.95556 9.15556C5.61426 9.15556 5.31304 9.04433 5.06667 8.86034V10.0444H4V5.6H5.06667V5.89522ZM11.8222 5.6V8.97778H12.8889V6.8L12.8962 6.79664C13.0546 6.72466 13.2427 6.66667 13.4222 6.66667C13.5085 6.66667 13.5649 6.6799 13.6 6.69339V8.97778H14.6667V6.80001L14.674 6.79664C14.8324 6.72466 15.0204 6.66667 15.2 6.66667C15.2863 6.66667 15.3426 6.6799 15.3778 6.69339V8.97778H16.4444V6.48889C16.4444 6.42104 16.4315 6.35381 16.4063 6.29082C16.398 6.27022 16.3883 6.24942 16.3782 6.22969C16.3648 6.2037 16.347 6.17232 16.3238 6.13749C16.2773 6.0679 16.2086 5.98328 16.1103 5.90139C15.9053 5.73054 15.6059 5.6 15.2 5.6C14.8107 5.6 14.4654 5.71978 14.2326 5.82559L14.2316 5.82604C14.0333 5.69361 13.766 5.6 13.4222 5.6C13.2311 5.6 13.0507 5.62886 12.8889 5.67075V5.6H11.8222Z" clip-rule="evenodd"></path>
  <defs>
    <linearGradient id="paint0_linear_302_5253" x1=".463" x2="24.463" y1="12" y2="12" gradientUnits="userSpaceOnUse">
      <stop stop-color="#ED6D6B"></stop>
      <stop offset="1" stop-color="#F0B076"></stop>
    </linearGradient>
  </defs>
</svg>
