<svg width="389" height="30" viewBox="0 0 389 30" fill="none" xmlns="http://www.w3.org/2000/svg">
<path d="M0.881094 29V0.999998H11.3611C13.6278 0.999998 15.5078 1.38667 17.0011 2.16C18.4944 2.93333 19.6011 3.97333 20.3211 5.28C21.0411 6.58667 21.4011 8.08 21.4011 9.76C21.4011 11.3067 21.0544 12.7333 20.3611 14.04C19.6678 15.3467 18.5744 16.4133 17.0811 17.24C15.5878 18.04 13.6811 18.44 11.3611 18.44H6.28109V29H0.881094ZM6.28109 14.08H11.0411C12.7744 14.08 14.0144 13.6933 14.7611 12.92C15.5344 12.12 15.9211 11.0667 15.9211 9.76C15.9211 8.37333 15.5344 7.30666 14.7611 6.56C14.0144 5.78667 12.7744 5.4 11.0411 5.4H6.28109V14.08ZM33.8358 29.48C31.9158 29.48 30.1824 29.04 28.6358 28.16C27.1158 27.2533 25.9024 26.0133 24.9958 24.44C24.1158 22.84 23.6758 21.0133 23.6758 18.96C23.6758 16.8533 24.1158 15.0133 24.9958 13.44C25.9024 11.84 27.1291 10.6 28.6758 9.72C30.2224 8.81333 31.9558 8.36 33.8758 8.36C35.8224 8.36 37.5558 8.81333 39.0758 9.72C40.6224 10.6 41.8358 11.84 42.7158 13.44C43.6224 15.0133 44.0758 16.84 44.0758 18.92C44.0758 21 43.6224 22.84 42.7158 24.44C41.8358 26.0133 40.6224 27.2533 39.0758 28.16C37.5291 29.04 35.7824 29.48 33.8358 29.48ZM33.8358 24.8C34.7424 24.8 35.5424 24.5867 36.2358 24.16C36.9558 23.7333 37.5158 23.08 37.9158 22.2C38.3424 21.32 38.5558 20.2267 38.5558 18.92C38.5558 17.6133 38.3424 16.5333 37.9158 15.68C37.5158 14.8 36.9558 14.1467 36.2358 13.72C35.5424 13.2667 34.7558 13.04 33.8758 13.04C33.0224 13.04 32.2358 13.2667 31.5158 13.72C30.7958 14.1467 30.2224 14.8 29.7958 15.68C29.3958 16.5333 29.1958 17.6133 29.1958 18.92C29.1958 20.2267 29.3958 21.32 29.7958 22.2C30.2224 23.08 30.7824 23.7333 31.4758 24.16C32.1958 24.5867 32.9824 24.8 33.8358 24.8ZM56.9698 29.48C55.1298 29.48 53.5298 29.1867 52.1698 28.6C50.8098 28.0133 49.7432 27.2 48.9698 26.16C48.1965 25.12 47.7565 23.9467 47.6498 22.64H53.0098C53.1432 23.1467 53.3698 23.6133 53.6898 24.04C54.0098 24.44 54.4365 24.76 54.9698 25C55.5032 25.24 56.1432 25.36 56.8898 25.36C57.6098 25.36 58.1965 25.2667 58.6498 25.08C59.1032 24.8667 59.4365 24.5867 59.6498 24.24C59.8898 23.8933 60.0098 23.5333 60.0098 23.16C60.0098 22.6 59.8498 22.1733 59.5298 21.88C59.2098 21.56 58.7432 21.3067 58.1298 21.12C57.5165 20.9333 56.7698 20.7467 55.8898 20.56C54.9298 20.3733 53.9832 20.1467 53.0498 19.88C52.1432 19.5867 51.3298 19.2267 50.6098 18.8C49.8898 18.3733 49.3165 17.8267 48.8898 17.16C48.4632 16.4933 48.2498 15.6667 48.2498 14.68C48.2498 13.48 48.5698 12.4133 49.2098 11.48C49.8498 10.52 50.7832 9.76 52.0098 9.2C53.2365 8.64 54.7165 8.36 56.4498 8.36C58.8765 8.36 60.7965 8.90667 62.2098 10C63.6232 11.0933 64.4632 12.6 64.7298 14.52H59.6498C59.4898 13.9067 59.1298 13.4267 58.5698 13.08C58.0365 12.7067 57.3165 12.52 56.4098 12.52C55.4498 12.52 54.7165 12.6933 54.2098 13.04C53.7032 13.3867 53.4498 13.84 53.4498 14.4C53.4498 14.7733 53.6098 15.1067 53.9298 15.4C54.2765 15.6933 54.7565 15.9467 55.3698 16.16C55.9832 16.3467 56.7298 16.5333 57.6098 16.72C59.1565 17.04 60.5165 17.4133 61.6898 17.84C62.8632 18.24 63.7832 18.8267 64.4498 19.6C65.1165 20.3467 65.4498 21.44 65.4498 22.88C65.4498 24.16 65.1032 25.3067 64.4098 26.32C63.7165 27.3067 62.7298 28.08 61.4498 28.64C60.1965 29.2 58.7032 29.48 56.9698 29.48ZM78.4739 29C77.0606 29 75.8206 28.7867 74.7539 28.36C73.7139 27.9067 72.9006 27.1733 72.3139 26.16C71.7272 25.12 71.4339 23.7067 71.4339 21.92V13.36H67.9939V8.84H71.4339L72.0339 3.36H76.8339V8.84H82.1539V13.36H76.8339V22C76.8339 22.9067 77.0339 23.5333 77.4339 23.88C77.8339 24.2267 78.5139 24.4 79.4739 24.4H82.1139V29H78.4739ZM95.8708 29.48C93.8441 29.48 92.0441 29.0533 90.4708 28.2C88.9241 27.32 87.7108 26.1067 86.8308 24.56C85.9774 22.9867 85.5508 21.1733 85.5508 19.12C85.5508 17.0133 85.9774 15.16 86.8308 13.56C87.7108 11.9333 88.9241 10.6667 90.4708 9.76C92.0174 8.82667 93.8174 8.36 95.8708 8.36C97.8708 8.36 99.6174 8.8 101.111 9.68C102.604 10.56 103.764 11.7467 104.591 13.24C105.417 14.7333 105.831 16.4267 105.831 18.32C105.831 18.5867 105.831 18.8933 105.831 19.24C105.831 19.56 105.804 19.8933 105.751 20.24H89.3908V16.96H100.391C100.311 15.6533 99.8441 14.6267 98.9908 13.88C98.1641 13.1333 97.1241 12.76 95.8708 12.76C94.9641 12.76 94.1241 12.9733 93.3508 13.4C92.5774 13.8 91.9641 14.4267 91.5108 15.28C91.0841 16.1333 90.8708 17.2133 90.8708 18.52V19.68C90.8708 20.7733 91.0708 21.7333 91.4708 22.56C91.8974 23.36 92.4841 23.9867 93.2308 24.44C93.9774 24.8667 94.8441 25.08 95.8308 25.08C96.8174 25.08 97.6308 24.8667 98.2708 24.44C98.9374 24.0133 99.4308 23.4667 99.7508 22.8H105.271C104.897 24.0533 104.271 25.1867 103.391 26.2C102.511 27.2133 101.431 28.0133 100.151 28.6C98.8708 29.1867 97.4441 29.48 95.8708 29.48ZM110.253 29V8.84H115.053L115.573 12.56C116.053 11.68 116.653 10.9333 117.373 10.32C118.12 9.70667 118.96 9.22667 119.893 8.88C120.853 8.53333 121.907 8.36 123.053 8.36V14.08H121.213C120.413 14.08 119.667 14.1733 118.973 14.36C118.307 14.5467 117.72 14.8533 117.213 15.28C116.707 15.68 116.32 16.24 116.053 16.96C115.787 17.68 115.653 18.5867 115.653 19.68V29H110.253ZM136.155 29V0.999998H141.555L154.435 20.32V0.999998H159.835V29H154.435L141.555 9.72V29H136.155ZM174.695 29.48C172.775 29.48 171.042 29.04 169.495 28.16C167.975 27.2533 166.762 26.0133 165.855 24.44C164.975 22.84 164.535 21.0133 164.535 18.96C164.535 16.8533 164.975 15.0133 165.855 13.44C166.762 11.84 167.988 10.6 169.535 9.72C171.082 8.81333 172.815 8.36 174.735 8.36C176.682 8.36 178.415 8.81333 179.935 9.72C181.482 10.6 182.695 11.84 183.575 13.44C184.482 15.0133 184.935 16.84 184.935 18.92C184.935 21 184.482 22.84 183.575 24.44C182.695 26.0133 181.482 27.2533 179.935 28.16C178.388 29.04 176.642 29.48 174.695 29.48ZM174.695 24.8C175.602 24.8 176.402 24.5867 177.095 24.16C177.815 23.7333 178.375 23.08 178.775 22.2C179.202 21.32 179.415 20.2267 179.415 18.92C179.415 17.6133 179.202 16.5333 178.775 15.68C178.375 14.8 177.815 14.1467 177.095 13.72C176.402 13.2667 175.615 13.04 174.735 13.04C173.882 13.04 173.095 13.2667 172.375 13.72C171.655 14.1467 171.082 14.8 170.655 15.68C170.255 16.5333 170.055 17.6133 170.055 18.92C170.055 20.2267 170.255 21.32 170.655 22.2C171.082 23.08 171.642 23.7333 172.335 24.16C173.055 24.5867 173.842 24.8 174.695 24.8ZM197.888 29C196.475 29 195.235 28.7867 194.168 28.36C193.128 27.9067 192.315 27.1733 191.728 26.16C191.141 25.12 190.848 23.7067 190.848 21.92V13.36H187.408V8.84H190.848L191.448 3.36H196.248V8.84H201.568V13.36H196.248V22C196.248 22.9067 196.448 23.5333 196.848 23.88C197.248 24.2267 197.928 24.4 198.888 24.4H201.528V29H197.888ZM213.767 29L224.007 0.999998H230.127L240.327 29H234.607L227.047 7.16L219.447 29H213.767ZM218.287 22.64L219.727 18.44H233.967L235.367 22.64H218.287ZM247.06 29L239.66 8.84H245.34L250.34 23.92L255.34 8.84H260.98L253.62 29H247.06ZM269.866 29.48C268.186 29.48 266.799 29.2133 265.706 28.68C264.612 28.12 263.799 27.3867 263.266 26.48C262.759 25.5467 262.506 24.52 262.506 23.4C262.506 22.1733 262.812 21.0933 263.426 20.16C264.066 19.2267 265.012 18.4933 266.266 17.96C267.546 17.4267 269.146 17.16 271.066 17.16H276.066C276.066 16.1733 275.932 15.36 275.666 14.72C275.399 14.0533 274.986 13.56 274.426 13.24C273.866 12.92 273.119 12.76 272.186 12.76C271.172 12.76 270.306 12.9867 269.586 13.44C268.892 13.8667 268.466 14.5333 268.306 15.44H263.066C263.199 14 263.666 12.76 264.466 11.72C265.292 10.6533 266.372 9.82667 267.706 9.24C269.066 8.65333 270.572 8.36 272.226 8.36C274.119 8.36 275.759 8.68 277.146 9.32C278.532 9.96 279.599 10.88 280.346 12.08C281.092 13.28 281.466 14.76 281.466 16.52V29H276.906L276.306 25.92C276.012 26.4533 275.666 26.9333 275.266 27.36C274.866 27.7867 274.399 28.16 273.866 28.48C273.332 28.8 272.732 29.04 272.066 29.2C271.399 29.3867 270.666 29.48 269.866 29.48ZM271.146 25.32C271.839 25.32 272.452 25.2 272.986 24.96C273.546 24.6933 274.026 24.3467 274.426 23.92C274.826 23.4667 275.132 22.96 275.346 22.4C275.586 21.8133 275.746 21.1867 275.826 20.52V20.48H271.706C270.879 20.48 270.199 20.5867 269.666 20.8C269.159 20.9867 268.786 21.2667 268.546 21.64C268.306 22.0133 268.186 22.44 268.186 22.92C268.186 23.4533 268.306 23.8933 268.546 24.24C268.786 24.5867 269.132 24.8533 269.586 25.04C270.039 25.2267 270.559 25.32 271.146 25.32ZM286.623 29V8.84H292.023V29H286.623ZM289.343 6.08C288.383 6.08 287.583 5.8 286.943 5.24C286.33 4.65333 286.023 3.92 286.023 3.04C286.023 2.16 286.33 1.44 286.943 0.88C287.583 0.293333 288.383 -9.53674e-07 289.343 -9.53674e-07C290.33 -9.53674e-07 291.13 0.293333 291.743 0.88C292.383 1.44 292.703 2.16 292.703 3.04C292.703 3.92 292.383 4.65333 291.743 5.24C291.13 5.8 290.33 6.08 289.343 6.08ZM297.48 29V0.199999H302.88V29H297.48ZM314.944 29.48C313.264 29.48 311.877 29.2133 310.784 28.68C309.691 28.12 308.877 27.3867 308.344 26.48C307.837 25.5467 307.584 24.52 307.584 23.4C307.584 22.1733 307.891 21.0933 308.504 20.16C309.144 19.2267 310.091 18.4933 311.344 17.96C312.624 17.4267 314.224 17.16 316.144 17.16H321.144C321.144 16.1733 321.011 15.36 320.744 14.72C320.477 14.0533 320.064 13.56 319.504 13.24C318.944 12.92 318.197 12.76 317.264 12.76C316.251 12.76 315.384 12.9867 314.664 13.44C313.971 13.8667 313.544 14.5333 313.384 15.44H308.144C308.277 14 308.744 12.76 309.544 11.72C310.371 10.6533 311.451 9.82667 312.784 9.24C314.144 8.65333 315.651 8.36 317.304 8.36C319.197 8.36 320.837 8.68 322.224 9.32C323.611 9.96 324.677 10.88 325.424 12.08C326.171 13.28 326.544 14.76 326.544 16.52V29H321.984L321.384 25.92C321.091 26.4533 320.744 26.9333 320.344 27.36C319.944 27.7867 319.477 28.16 318.944 28.48C318.411 28.8 317.811 29.04 317.144 29.2C316.477 29.3867 315.744 29.48 314.944 29.48ZM316.224 25.32C316.917 25.32 317.531 25.2 318.064 24.96C318.624 24.6933 319.104 24.3467 319.504 23.92C319.904 23.4667 320.211 22.96 320.424 22.4C320.664 21.8133 320.824 21.1867 320.904 20.52V20.48H316.784C315.957 20.48 315.277 20.5867 314.744 20.8C314.237 20.9867 313.864 21.2667 313.624 21.64C313.384 22.0133 313.264 22.44 313.264 22.92C313.264 23.4533 313.384 23.8933 313.624 24.24C313.864 24.5867 314.211 24.8533 314.664 25.04C315.117 25.2267 315.637 25.32 316.224 25.32ZM343.501 29.48C342.461 29.48 341.528 29.3467 340.701 29.08C339.901 28.8133 339.181 28.4533 338.541 28C337.928 27.52 337.408 26.9867 336.981 26.4L336.381 29H331.581V0.199999H336.981V11.64C337.621 10.7067 338.461 9.93333 339.501 9.32C340.568 8.68 341.888 8.36 343.461 8.36C345.328 8.36 346.981 8.82667 348.421 9.76C349.888 10.6667 351.035 11.92 351.861 13.52C352.715 15.0933 353.141 16.9067 353.141 18.96C353.141 20.96 352.715 22.76 351.861 24.36C351.035 25.96 349.901 27.2133 348.461 28.12C347.021 29.0267 345.368 29.48 343.501 29.48ZM342.221 24.76C343.288 24.76 344.221 24.52 345.021 24.04C345.848 23.5333 346.488 22.8533 346.941 22C347.395 21.12 347.621 20.1067 347.621 18.96C347.621 17.8133 347.395 16.8 346.941 15.92C346.488 15.0133 345.848 14.32 345.021 13.84C344.221 13.3333 343.288 13.08 342.221 13.08C341.181 13.08 340.248 13.3333 339.421 13.84C338.621 14.32 337.981 15 337.501 15.88C337.048 16.76 336.821 17.7733 336.821 18.92C336.821 20.0667 337.048 21.0933 337.501 22C337.981 22.88 338.621 23.56 339.421 24.04C340.248 24.52 341.181 24.76 342.221 24.76ZM357.792 29V0.199999H363.192V29H357.792ZM378.136 29.48C376.11 29.48 374.31 29.0533 372.736 28.2C371.19 27.32 369.976 26.1067 369.096 24.56C368.243 22.9867 367.816 21.1733 367.816 19.12C367.816 17.0133 368.243 15.16 369.096 13.56C369.976 11.9333 371.19 10.6667 372.736 9.76C374.283 8.82667 376.083 8.36 378.136 8.36C380.136 8.36 381.883 8.8 383.376 9.68C384.87 10.56 386.03 11.7467 386.856 13.24C387.683 14.7333 388.096 16.4267 388.096 18.32C388.096 18.5867 388.096 18.8933 388.096 19.24C388.096 19.56 388.07 19.8933 388.016 20.24H371.656V16.96H382.656C382.576 15.6533 382.11 14.6267 381.256 13.88C380.43 13.1333 379.39 12.76 378.136 12.76C377.23 12.76 376.39 12.9733 375.616 13.4C374.843 13.8 374.23 14.4267 373.776 15.28C373.35 16.1333 373.136 17.2133 373.136 18.52V19.68C373.136 20.7733 373.336 21.7333 373.736 22.56C374.163 23.36 374.75 23.9867 375.496 24.44C376.243 24.8667 377.11 25.08 378.096 25.08C379.083 25.08 379.896 24.8667 380.536 24.44C381.203 24.0133 381.696 23.4667 382.016 22.8H387.536C387.163 24.0533 386.536 25.1867 385.656 26.2C384.776 27.2133 383.696 28.0133 382.416 28.6C381.136 29.1867 379.71 29.48 378.136 29.48Z" fill="white"/>
</svg>
