<svg xmlns="http://www.w3.org/2000/svg" width="25" height="24" fill="none" viewBox="0 0 25 24" id="hbo-max">
  <rect width="24" height="24" x=".463" fill="url(#paint0_linear_302_5271)" rx="8"></rect>
  <path fill="#fff" fill-rule="evenodd" d="M6.31111 11.6889V9.55555H7.02222V11.6889H8.44444V6H7.02222V8.13333H6.31111V6H4.88889V11.6889H6.31111ZM9.15555 6H11.4413C12.4141 6 13.4222 6.68482 13.4222 7.77777C13.4222 8.19934 13.2722 8.56019 13.0322 8.84444C13.2722 9.12869 13.4222 9.48954 13.4222 9.9111C13.4222 11.0041 12.4141 11.6889 11.4413 11.6889H9.15555V6ZM11.4413 8.13333C11.6327 8.13333 11.7862 8.06783 11.8818 7.98752C11.9759 7.90849 12 7.8315 12 7.77777C12 7.72405 11.9759 7.64706 11.8818 7.56803C11.7862 7.48772 11.6327 7.42222 11.4413 7.42222H10.5778V8.13333H11.4413ZM10.5778 9.55555H11.4413C11.6327 9.55555 11.7862 9.62105 11.8818 9.70136C11.9759 9.78039 12 9.85738 12 9.9111C12 9.96483 11.9759 10.0418 11.8818 10.1209C11.7862 10.2012 11.6327 10.2667 11.4413 10.2667H10.5778V9.55555ZM16.2666 7.42222C15.4812 7.42222 14.8444 8.05897 14.8444 8.84444C14.8444 9.62991 15.4812 10.2667 16.2666 10.2667C17.0521 10.2667 17.6889 9.62991 17.6889 8.84444C17.6889 8.05897 17.0521 7.42222 16.2666 7.42222ZM13.4222 8.84444C13.4222 7.2735 14.6957 6 16.2666 6C17.8376 6 19.1111 7.2735 19.1111 8.84444C19.1111 10.4154 17.8376 11.6889 16.2666 11.6889C14.6957 11.6889 13.4222 10.4154 13.4222 8.84444ZM16.6794 13.1289C16.4929 12.901 16.1569 12.8674 15.9289 13.0539C15.701 13.2404 15.6673 13.5764 15.8538 13.8044L17.1775 15.4222L15.8538 17.0401C15.6673 17.268 15.701 17.604 15.9289 17.7906C16.1569 17.9771 16.4929 17.9434 16.6794 17.7155L17.8666 16.2644L19.0538 17.7155C19.2404 17.9434 19.5764 17.9771 19.8043 17.7906C20.0323 17.604 20.066 17.268 19.8794 17.0401L18.5557 15.4222L19.8794 13.8044C20.066 13.5764 20.0323 13.2404 19.8043 13.0539C19.5764 12.8674 19.2404 12.901 19.0538 13.1289L17.8666 14.58L16.6794 13.1289ZM13.0667 14C12.4261 14 11.8222 14.5878 11.8222 15.4222C11.8222 16.2566 12.4261 16.8444 13.0667 16.8444C13.7072 16.8444 14.3111 16.2566 14.3111 15.4222C14.3111 14.5878 13.7072 14 13.0667 14ZM13.0667 12.9333C13.5398 12.9333 13.9701 13.0821 14.3277 13.3339C14.3868 13.1036 14.5957 12.9333 14.8444 12.9333C15.139 12.9333 15.3778 13.1721 15.3778 13.4667V15.4222V17.3778C15.3778 17.6723 15.139 17.9111 14.8444 17.9111C14.5957 17.9111 14.3868 17.7409 14.3277 17.5105C13.9701 17.7623 13.5398 17.9111 13.0667 17.9111C11.7436 17.9111 10.7555 16.7478 10.7555 15.4222C10.7555 14.0966 11.7436 12.9333 13.0667 12.9333ZM10.7555 14.8889V15.4222V17.3778C10.7555 17.6723 10.5168 17.9111 10.2222 17.9111C9.92766 17.9111 9.68888 17.6723 9.68888 17.3778V14.8889C9.68888 14.3979 9.29091 14 8.79999 14C8.30907 14 7.9111 14.3979 7.9111 14.8889V17.3778C7.9111 17.6723 7.67232 17.9111 7.37777 17.9111C7.08322 17.9111 6.84444 17.6723 6.84444 17.3778V14.8889C6.84444 14.3979 6.44647 14 5.95555 14C5.46463 14 5.06666 14.3979 5.06666 14.8889V17.3778C5.06666 17.6723 4.82788 17.9111 4.53333 17.9111C4.23878 17.9111 4 17.6723 4 17.3778V14.8889C4 13.8088 4.87553 12.9333 5.95555 12.9333C6.51591 12.9333 7.02124 13.169 7.37777 13.5467C7.73431 13.169 8.23963 12.9333 8.79999 12.9333C9.88001 12.9333 10.7555 13.8088 10.7555 14.8889ZM16.2666 9.55555C16.6594 9.55555 16.9778 9.23717 16.9778 8.84444C16.9778 8.45171 16.6594 8.13333 16.2666 8.13333C15.8739 8.13333 15.5555 8.45171 15.5555 8.84444C15.5555 9.23717 15.8739 9.55555 16.2666 9.55555Z" clip-rule="evenodd"></path>
  <defs>
    <linearGradient id="paint0_linear_302_5271" x1=".463" x2="24.463" y1="12" y2="12" gradientUnits="userSpaceOnUse">
      <stop stop-color="#ED6D6B"></stop>
      <stop offset="1" stop-color="#F0B076"></stop>
    </linearGradient>
  </defs>
</svg>
